<mxfile host="Electron" modified="2024-05-23T16:24:18.669Z" agent="Mozilla/5.0 (Windows NT 10.0; Win64; x64) AppleWebKit/537.36 (KHTML, like Gecko) draw.io/24.4.6 Chrome/124.0.6367.207 Electron/30.0.6 Safari/537.36" etag="x5q05qr5S7fCdIgPmE5r" version="24.4.6" type="device">
  <diagram id="C5RBs43oDa-KdzZeNtuy" name="Page-1">
    <mxGraphModel dx="1235" dy="731" grid="1" gridSize="10" guides="1" tooltips="1" connect="1" arrows="1" fold="1" page="1" pageScale="1" pageWidth="827" pageHeight="1169" math="0" shadow="0">
      <root>
        <mxCell id="WIyWlLk6GJQsqaUBKTNV-0" />
        <mxCell id="WIyWlLk6GJQsqaUBKTNV-1" parent="WIyWlLk6GJQsqaUBKTNV-0" />
        <mxCell id="mF3UIh9txs2wypll8ozO-3" value="" style="edgeStyle=orthogonalEdgeStyle;rounded=0;orthogonalLoop=1;jettySize=auto;html=1;" parent="WIyWlLk6GJQsqaUBKTNV-1" source="mF3UIh9txs2wypll8ozO-0" target="mF3UIh9txs2wypll8ozO-2" edge="1">
          <mxGeometry relative="1" as="geometry" />
        </mxCell>
        <mxCell id="mF3UIh9txs2wypll8ozO-0" value="Try a general model with zero and few-shot prompting and think about all the drawbacks associated" style="rounded=1;whiteSpace=wrap;html=1;fontSize=12;glass=0;strokeWidth=1;shadow=0;" parent="WIyWlLk6GJQsqaUBKTNV-1" vertex="1">
          <mxGeometry x="338.75" y="50" width="197.5" height="100" as="geometry" />
        </mxCell>
        <mxCell id="mF3UIh9txs2wypll8ozO-9" value="" style="edgeStyle=orthogonalEdgeStyle;rounded=0;orthogonalLoop=1;jettySize=auto;html=1;exitX=1;exitY=0.5;exitDx=0;exitDy=0;entryX=0.5;entryY=0;entryDx=0;entryDy=0;" parent="WIyWlLk6GJQsqaUBKTNV-1" source="mF3UIh9txs2wypll8ozO-2" target="mF3UIh9txs2wypll8ozO-20" edge="1">
          <mxGeometry relative="1" as="geometry">
            <mxPoint x="537.5" y="210" as="sourcePoint" />
            <mxPoint x="617.5" y="220" as="targetPoint" />
          </mxGeometry>
        </mxCell>
        <mxCell id="mF3UIh9txs2wypll8ozO-28" value="" style="edgeStyle=orthogonalEdgeStyle;rounded=0;orthogonalLoop=1;jettySize=auto;html=1;entryX=0.5;entryY=0;entryDx=0;entryDy=0;" parent="WIyWlLk6GJQsqaUBKTNV-1" source="mF3UIh9txs2wypll8ozO-2" target="mF3UIh9txs2wypll8ozO-29" edge="1">
          <mxGeometry relative="1" as="geometry">
            <mxPoint x="267.5" y="220" as="targetPoint" />
          </mxGeometry>
        </mxCell>
        <mxCell id="mF3UIh9txs2wypll8ozO-2" value="Are the&amp;nbsp;&lt;div&gt;results&lt;div&gt;good?&lt;/div&gt;&lt;/div&gt;" style="rhombus;whiteSpace=wrap;html=1;shadow=0;fontFamily=Helvetica;fontSize=12;align=center;strokeWidth=1;spacing=6;spacingTop=-4;" parent="WIyWlLk6GJQsqaUBKTNV-1" vertex="1">
          <mxGeometry x="387.5" y="180" width="100" height="80" as="geometry" />
        </mxCell>
        <mxCell id="mF3UIh9txs2wypll8ozO-20" value="General model&lt;div&gt;+&lt;/div&gt;&lt;div&gt;Prompting&lt;/div&gt;" style="rounded=1;whiteSpace=wrap;html=1;shadow=0;strokeWidth=1;spacing=6;spacingTop=-4;fillColor=#d5e8d4;strokeColor=#82b366;" parent="WIyWlLk6GJQsqaUBKTNV-1" vertex="1">
          <mxGeometry x="614.5" y="570" width="120" height="60" as="geometry" />
        </mxCell>
        <mxCell id="mF3UIh9txs2wypll8ozO-22" value="Yes" style="text;html=1;align=center;verticalAlign=middle;resizable=0;points=[];autosize=1;strokeColor=none;fillColor=none;" parent="WIyWlLk6GJQsqaUBKTNV-1" vertex="1">
          <mxGeometry x="487.5" y="180" width="40" height="30" as="geometry" />
        </mxCell>
        <mxCell id="mF3UIh9txs2wypll8ozO-39" value="" style="edgeStyle=orthogonalEdgeStyle;rounded=0;orthogonalLoop=1;jettySize=auto;html=1;exitX=0;exitY=0.5;exitDx=0;exitDy=0;" parent="WIyWlLk6GJQsqaUBKTNV-1" source="mF3UIh9txs2wypll8ozO-29" target="mF3UIh9txs2wypll8ozO-38" edge="1">
          <mxGeometry relative="1" as="geometry" />
        </mxCell>
        <mxCell id="3eT65VSrb5yRApFO_pXr-1" style="edgeStyle=orthogonalEdgeStyle;rounded=0;orthogonalLoop=1;jettySize=auto;html=1;entryX=0.5;entryY=0;entryDx=0;entryDy=0;" edge="1" parent="WIyWlLk6GJQsqaUBKTNV-1" source="mF3UIh9txs2wypll8ozO-29" target="3eT65VSrb5yRApFO_pXr-0">
          <mxGeometry relative="1" as="geometry" />
        </mxCell>
        <mxCell id="mF3UIh9txs2wypll8ozO-29" value="&lt;div&gt;Labeled data available or can be obtained?&lt;/div&gt;" style="rhombus;whiteSpace=wrap;html=1;shadow=0;fontFamily=Helvetica;fontSize=12;align=center;strokeWidth=1;spacing=6;spacingTop=-4;" parent="WIyWlLk6GJQsqaUBKTNV-1" vertex="1">
          <mxGeometry x="192.5" y="260" width="130" height="120" as="geometry" />
        </mxCell>
        <mxCell id="mF3UIh9txs2wypll8ozO-47" value="" style="edgeStyle=orthogonalEdgeStyle;rounded=0;orthogonalLoop=1;jettySize=auto;html=1;" parent="WIyWlLk6GJQsqaUBKTNV-1" source="mF3UIh9txs2wypll8ozO-38" target="3eT65VSrb5yRApFO_pXr-3" edge="1">
          <mxGeometry relative="1" as="geometry">
            <mxPoint x="142.5" y="560" as="targetPoint" />
          </mxGeometry>
        </mxCell>
        <mxCell id="3eT65VSrb5yRApFO_pXr-2" style="edgeStyle=orthogonalEdgeStyle;rounded=0;orthogonalLoop=1;jettySize=auto;html=1;entryX=0.5;entryY=0;entryDx=0;entryDy=0;" edge="1" parent="WIyWlLk6GJQsqaUBKTNV-1" source="mF3UIh9txs2wypll8ozO-38" target="3eT65VSrb5yRApFO_pXr-0">
          <mxGeometry relative="1" as="geometry" />
        </mxCell>
        <mxCell id="mF3UIh9txs2wypll8ozO-38" value="Computational resources&lt;div&gt;available?&lt;/div&gt;" style="rhombus;whiteSpace=wrap;html=1;shadow=0;strokeWidth=1;spacing=6;spacingTop=-4;" parent="WIyWlLk6GJQsqaUBKTNV-1" vertex="1">
          <mxGeometry x="80" y="398" width="125" height="112" as="geometry" />
        </mxCell>
        <mxCell id="mF3UIh9txs2wypll8ozO-41" value="No" style="text;html=1;align=center;verticalAlign=middle;resizable=0;points=[];autosize=1;strokeColor=none;fillColor=none;" parent="WIyWlLk6GJQsqaUBKTNV-1" vertex="1">
          <mxGeometry x="347.5" y="180" width="40" height="30" as="geometry" />
        </mxCell>
        <mxCell id="mF3UIh9txs2wypll8ozO-42" value="No" style="text;html=1;align=center;verticalAlign=middle;resizable=0;points=[];autosize=1;strokeColor=none;fillColor=none;" parent="WIyWlLk6GJQsqaUBKTNV-1" vertex="1">
          <mxGeometry x="152.5" y="285" width="40" height="30" as="geometry" />
        </mxCell>
        <mxCell id="mF3UIh9txs2wypll8ozO-43" value="Yes" style="text;html=1;align=center;verticalAlign=middle;resizable=0;points=[];autosize=1;strokeColor=none;fillColor=none;" parent="WIyWlLk6GJQsqaUBKTNV-1" vertex="1">
          <mxGeometry x="367.5" y="285" width="40" height="30" as="geometry" />
        </mxCell>
        <mxCell id="mF3UIh9txs2wypll8ozO-45" value="No" style="text;html=1;align=center;verticalAlign=middle;resizable=0;points=[];autosize=1;strokeColor=none;fillColor=none;" parent="WIyWlLk6GJQsqaUBKTNV-1" vertex="1">
          <mxGeometry x="142.5" y="510" width="40" height="30" as="geometry" />
        </mxCell>
        <mxCell id="mF3UIh9txs2wypll8ozO-48" value="Yes" style="text;html=1;align=center;verticalAlign=middle;resizable=0;points=[];autosize=1;strokeColor=none;fillColor=none;" parent="WIyWlLk6GJQsqaUBKTNV-1" vertex="1">
          <mxGeometry x="205" y="420" width="40" height="30" as="geometry" />
        </mxCell>
        <mxCell id="3eT65VSrb5yRApFO_pXr-0" value="Fine-tuned model" style="rounded=1;whiteSpace=wrap;html=1;shadow=0;strokeWidth=1;spacing=6;spacingTop=-4;fillColor=#d5e8d4;strokeColor=#82b366;" vertex="1" parent="WIyWlLk6GJQsqaUBKTNV-1">
          <mxGeometry x="392.5" y="570" width="120" height="60" as="geometry" />
        </mxCell>
        <mxCell id="3eT65VSrb5yRApFO_pXr-3" value="Problem! General model do not work and no data available" style="rounded=1;whiteSpace=wrap;html=1;shadow=0;strokeWidth=1;spacing=6;spacingTop=-4;" vertex="1" parent="WIyWlLk6GJQsqaUBKTNV-1">
          <mxGeometry x="78.75" y="570" width="127.5" height="60" as="geometry" />
        </mxCell>
      </root>
    </mxGraphModel>
  </diagram>
</mxfile>
